<?xml version="1.0" encoding="UTF-8" standalone="no"?>
<!-- Created with Inkscape (http://www.inkscape.org/) -->

<svg
   xmlns:dc="http://purl.org/dc/elements/1.1/"
   xmlns:cc="http://creativecommons.org/ns#"
   xmlns:rdf="http://www.w3.org/1999/02/22-rdf-syntax-ns#"
   xmlns:svg="http://www.w3.org/2000/svg"
   xmlns="http://www.w3.org/2000/svg"
   xmlns:sodipodi="http://sodipodi.sourceforge.net/DTD/sodipodi-0.dtd"
   xmlns:inkscape="http://www.inkscape.org/namespaces/inkscape"
   width="256"
   height="256"
   id="svg4136"
   version="1.1"
   inkscape:version="0.91 r13725"
   viewBox="0 0 256 256"
   sodipodi:docname="m256gule.svg"
   inkscape:export-filename="D:\home\Pictures\_work\2d_icon\m256gameuilayouteditor_icon\m256gule.png"
   inkscape:export-xdpi="90"
   inkscape:export-ydpi="90">
  <defs
     id="defs4138" />
  <sodipodi:namedview
     id="base"
     pagecolor="#ffffff"
     bordercolor="#666666"
     borderopacity="1.0"
     inkscape:pageopacity="0.0"
     inkscape:pageshadow="2"
     inkscape:zoom="1.6419492"
     inkscape:cx="159.19936"
     inkscape:cy="89.99751"
     inkscape:current-layer="layer1"
     showgrid="true"
     inkscape:document-units="px"
     inkscape:grid-bbox="true"
     inkscape:object-paths="true"
     inkscape:snap-intersection-paths="true"
     inkscape:object-nodes="true"
     inkscape:snap-smooth-nodes="true"
     inkscape:snap-midpoints="true"
     inkscape:snap-nodes="false">
    <inkscape:grid
       type="xygrid"
       id="grid4684"
       spacingx="8"
       spacingy="8" />
  </sodipodi:namedview>
  <metadata
     id="metadata4141">
    <rdf:RDF>
      <cc:Work
         rdf:about="">
        <dc:format>image/svg+xml</dc:format>
        <dc:type
           rdf:resource="http://purl.org/dc/dcmitype/StillImage" />
        <dc:title></dc:title>
      </cc:Work>
    </rdf:RDF>
  </metadata>
  <g
     id="layer1"
     inkscape:label="Layer 1"
     inkscape:groupmode="layer"
     transform="translate(0,192)">
    <g
       transform="matrix(0.91964158,0,0,1,4.3308964,5.4812903)"
       id="g4921"
       style="stroke-width:10.42775216;stroke-miterlimit:4;stroke-dasharray:none;stroke:#000000;fill:#000000">
      <path
         style="opacity:1;fill:#000000;fill-opacity:1;stroke:#000000;stroke-width:9.99999977;stroke-miterlimit:4;stroke-dasharray:none;stroke-opacity:1"
         d="M 41.117188 21.480469 L 41.117188 49.480469 L 19.044922 49.480469 L 19.044922 57.480469 L 19.044922 211.64453 L 19.044922 217.48047 A 66.214197 16 0 0 0 85.259766 233.48047 A 66.214197 16 0 0 0 151.47266 217.48047 L 151.47266 211.53906 L 151.47266 57.480469 L 151.47266 49.480469 L 129.40234 49.480469 L 129.40234 21.480469 L 41.117188 21.480469 z "
         transform="matrix(1.0873802,0,0,1,-4.7093308,-197.48129)"
         id="rect4923" />
      <g
         id="g4925"
         transform="translate(8,-12)"
         style="fill:#000000;stroke-width:10.42775216;stroke-miterlimit:4;stroke-dasharray:none;stroke:#000000" />
    </g>
    <g
       style="stroke-width:3.12832565;stroke-miterlimit:4;stroke-dasharray:none;stroke:#ffffff;fill:#000000"
       id="g4934"
       transform="matrix(0.91964158,0,0,1,4.3308964,5.4812903)">
      <path
         id="path4936"
         transform="matrix(1.0873802,0,0,1,-4.7093308,-197.48129)"
         d="M 41.117188 21.480469 L 41.117188 49.480469 L 19.044922 49.480469 L 19.044922 57.480469 L 19.044922 211.64453 L 19.044922 217.48047 A 66.214197 16 0 0 0 85.259766 233.48047 A 66.214197 16 0 0 0 151.47266 217.48047 L 151.47266 211.53906 L 151.47266 57.480469 L 151.47266 49.480469 L 129.40234 49.480469 L 129.40234 21.480469 L 41.117188 21.480469 z "
         style="opacity:1;fill:#000000;fill-opacity:1;stroke:#ffffff;stroke-width:2.99999993;stroke-miterlimit:4;stroke-dasharray:none;stroke-opacity:1" />
      <g
         style="fill:#000000;stroke-width:3.12832565;stroke-miterlimit:4;stroke-dasharray:none;stroke:#ffffff"
         transform="translate(8,-12)"
         id="g4938" />
    </g>
    <g
       transform="matrix(0.63204301,0,0,1,115.40581,2.5893832)"
       id="g4906"
       style="fill:#000000;stroke-width:10.06274971;stroke-miterlimit:4;stroke-dasharray:none;stroke:#000000">
      <path
         style="opacity:1;fill:#000000;fill-opacity:1;stroke:#000000;stroke-width:8.00000002;stroke-miterlimit:4;stroke-dasharray:none;stroke-opacity:1"
         d="m 165.96875,14.589844 15.16992,56 0,24 5.05664,5.999996 0,82.41407 a 45.507097,16 0 0 0 -35.39453,15.58593 l 0,8 c 0,2.64193 1.83158,5.13204 5.05664,7.32813 l 0,23.67187 0,1 0.16211,0 a 40.450753,12 0 0 0 40.28711,11 40.450753,12 0 0 0 40.2832,-11 l 0.16797,0 0,-1 0,-23.67382 c 3.22413,-2.19584 5.05664,-4.68466 5.05664,-7.32618 l 0,-8 a 45.507097,16 0 0 0 -35.39453,-15.58007 l 0,-82.41993 5.05664,-5.999996 0,-24 15.16797,-56 -3.79101,0 -11.76368,0 -4.78515,16 1.61523,-16 -0.23633,0 -16.66601,0 -1.93946,5.80664 -1.57812,-5.80664 -11.41797,0 1.9043,14 -4.43164,-14 -3.79297,0 -3.79297,0 z"
         transform="matrix(1.5821708,0,0,1,-182.5917,-194.58938)"
         id="path4908"
         inkscape:connector-curvature="0" />
    </g>
    <g
       id="g4816"
       transform="matrix(0.91964158,0,0,1,4.3308964,5.4812903)">
      <rect
         y="-176"
         x="40"
         height="40"
         width="96"
         id="rect4814"
         style="opacity:1;fill:#bdc3c7;fill-opacity:1;stroke:none;stroke-width:1;stroke-miterlimit:4;stroke-dasharray:none;stroke-opacity:1" />
      <g
         transform="translate(8,-12)"
         id="g4810">
        <path
           inkscape:connector-curvature="0"
           style="opacity:1;fill:#27ae60;fill-opacity:1;stroke:none;stroke-width:1;stroke-miterlimit:4;stroke-dasharray:none;stroke-opacity:1"
           d="m 8,56 0,168 a 72,16 0 0 0 72,16 72,16 0 0 0 72,-16 L 152,56 8,56 Z"
           transform="translate(0,-192)"
           id="rect4800" />
        <path
           inkscape:connector-curvature="0"
           style="opacity:1;fill:#2c3e50;fill-opacity:1;stroke:none;stroke-width:1;stroke-miterlimit:4;stroke-dasharray:none;stroke-opacity:1"
           d="m 8,56 0,8 144,0 0,-8 L 8,56 Z M 152,218.05859 C 100.08192,230.82904 52.474629,229.58483 8,218.16406 L 8,224 a 72,16 0 0 0 72,16 72,16 0 0 0 72,-16 l 0,-5.94141 z"
           transform="translate(0,-192)"
           id="path4805" />
      </g>
    </g>
    <g
       id="g4792"
       transform="matrix(0.63204301,0,0,1,115.40581,2.5893832)">
      <path
         inkscape:connector-curvature="0"
         id="path4735"
         d="m 64,12 0,31 0,1 0.257812,0 A 64,12 0 0 0 128,55 64,12 0 0 0 191.73242,44 L 192,44 l 0,-1 0,-31 -128,0 z"
         style="opacity:1;fill:#95a5a6;fill-opacity:1;stroke:none;stroke-width:1;stroke-miterlimit:4;stroke-dasharray:none;stroke-opacity:1" />
      <path
         sodipodi:nodetypes="cccsssccc"
         inkscape:connector-curvature="0"
         id="ellipse4725"
         d="m 128,-9.95948 c -25.69509,0.006 -53.897464,6.28302 -66.745004,11.22805 L 56,4 l 0,8 c 0,8.83656 32.235498,16 72,16 39.7645,0 72,-7.16344 72,-16 l 0,-8 -5.28039,-1.73818 C 181.44597,-6.1266767 161.43801,-9.9487662 128,-9.95948 Z"
         style="opacity:1;fill:#bdc3c7;fill-opacity:1;stroke:none;stroke-width:1;stroke-miterlimit:4;stroke-dasharray:none;stroke-opacity:1" />
      <path
         sodipodi:nodetypes="ccccccccccccccccc"
         inkscape:connector-curvature="0"
         id="path4700"
         d="m 104,-124 -24,-56 6,0 6,0 7.014556,14 L 96,-180 l 18.06448,0 2.49843,5.80792 3.06787,-5.80792 c 20.87999,0 9.97041,0 26.36922,0 l 0.37189,0 -2.55426,16 7.56935,-16 18.61302,0 6,0 -24,56 z"
         style="fill:#34495e;fill-rule:evenodd;stroke:none;stroke-width:1px;stroke-linecap:butt;stroke-linejoin:miter;stroke-opacity:1" />
      <path
         style="opacity:1;fill:#7f8c8d;fill-opacity:1;stroke:none;stroke-width:1;stroke-miterlimit:4;stroke-dasharray:none;stroke-opacity:1"
         d="m 128,-9.95948 c -25.69509,0.006 -53.897464,6.28302 -66.745004,11.22805 l 0.343465,4.2387079 C 69.102939,14.074768 119.45872,18.091113 128,18.095031 138.77374,18.029526 185.35787,14.783985 200,4 L 194.71961,2.26182 C 181.44597,-6.1266767 161.43801,-9.9487662 128,-9.95948 Z"
         id="path4790"
         inkscape:connector-curvature="0"
         sodipodi:nodetypes="ccccccc" />
      <path
         inkscape:connector-curvature="0"
         id="path4721"
         d="M 128,-12 A 72,16 0 0 0 56,4 72,16 0 0 0 128,20 72,16 0 0 0 200,4 72,16 0 0 0 128,-12 Z m 0,4.26172 A 64,11.739034 0 0 1 192,4 64,11.739034 0 0 1 128,15.73828 64,11.739034 0 0 1 64,4 64,11.739034 0 0 1 128,-7.73828 Z"
         style="opacity:1;fill:#ecf0f1;fill-opacity:1;stroke:none;stroke-width:1;stroke-miterlimit:4;stroke-dasharray:none;stroke-opacity:1" />
      <path
         sodipodi:nodetypes="ccccccccccc"
         inkscape:connector-curvature="0"
         id="rect4698"
         d="m 104,-124 48,0 0,24 -8,6 0,98 8,11 c -15.01905,1.121086 -30.67436,1.515016 -48,0 l 8,-11 0,-98 -8,-6 z"
         style="opacity:1;fill:#bdc3c7;fill-opacity:1;stroke:none;stroke-width:1;stroke-miterlimit:4;stroke-dasharray:none;stroke-opacity:1" />
    </g>
  </g>
</svg>
